<svg width="24" height="20" viewBox="0 0 24 20" fill="none" xmlns="http://www.w3.org/2000/svg">
<path d="M0.75 1.25C0.75 0.559644 1.30964 0 2 0H22C22.6904 0 23.25 0.559644 23.25 1.25C23.25 1.94036 22.6904 2.5 22 2.5H2C1.30964 2.5 0.75 1.94036 0.75 1.25ZM0.75 10C0.75 9.30964 1.30964 8.75 2 8.75H22C22.6904 8.75 23.25 9.30964 23.25 10C23.25 10.6904 22.6904 11.25 22 11.25H2C1.30964 11.25 0.75 10.6904 0.75 10ZM0.75 18.75C0.75 18.0596 1.30964 17.5 2 17.5H22C22.6904 17.5 23.25 18.0596 23.25 18.75C23.25 19.4404 22.6904 20 22 20H2C1.30964 20 0.75 19.4404 0.75 18.75Z" fill="black"/>
</svg>
