<svg width="46" height="46" viewBox="0 0 46 46" fill="none" xmlns="http://www.w3.org/2000/svg">
<rect width="46" height="46" rx="9" fill="#E6E7EB"/>
<path d="M21.8924 27.5984C20.1482 27.4164 18.5754 26.9869 17.2289 25.9337C17.0619 25.8027 16.8894 25.6764 16.7369 25.5301C16.1475 24.9641 16.0882 24.3158 16.5545 23.6477C16.9535 23.076 17.6232 22.9231 18.3193 23.2514C18.4541 23.315 18.5825 23.3944 18.7055 23.4797C21.2149 25.2039 24.6623 25.2515 27.1811 23.5572C27.4307 23.3659 27.6974 23.2099 28.0066 23.1302C28.6077 22.9759 29.1683 23.1967 29.4909 23.7227C29.8595 24.3233 29.8548 24.9096 29.4007 25.376C28.7041 26.0909 27.8664 26.6082 26.9356 26.9692C26.0554 27.3104 25.0914 27.4822 24.1372 27.5963C24.2812 27.753 24.3491 27.83 24.4391 27.9205C25.7347 29.2222 27.0359 30.5185 28.3273 31.8243C28.7673 32.2692 28.8592 32.8208 28.6169 33.3383C28.352 33.9039 27.7592 34.2759 27.1778 34.2361C26.8095 34.2107 26.5222 34.0273 26.267 33.7702C25.2893 32.7864 24.2932 31.8207 23.3353 30.8183C23.0565 30.5268 22.9225 30.5819 22.6764 30.835C21.6928 31.8476 20.6932 32.8446 19.6877 33.836C19.2362 34.2811 18.6989 34.3612 18.1753 34.107C17.6187 33.8372 17.2645 33.269 17.2919 32.698C17.3107 32.3118 17.5006 32.0168 17.7658 31.7521C19.0479 30.4719 20.3265 29.1883 21.6056 27.9059C21.6902 27.8206 21.7692 27.7301 21.8924 27.5984Z" fill="#7E7F85"/>
<path d="M22.955 23.1387C19.8432 23.1281 17.2916 20.5485 17.3098 17.4318C17.3277 14.2807 19.8809 11.7413 23.0233 11.75C26.172 11.7585 28.6994 14.3344 28.6836 17.5182C28.6676 20.6286 26.0983 23.1496 22.955 23.1387ZM25.783 17.4393C25.7776 15.8918 24.5451 14.6598 23.0007 14.6584C21.4433 14.6568 20.1998 15.9111 20.2118 17.4728C20.2233 19.0144 21.4664 20.2376 23.0151 20.232C24.559 20.2266 25.7882 18.9866 25.783 17.4393Z" fill="#7E7F85"/>
</svg>
