<svg width="46" height="46" viewBox="0 0 46 46" fill="none" xmlns="http://www.w3.org/2000/svg">
<rect width="46" height="46" rx="9" fill="#E6E7EB"/>
<path d="M14.5569 22.6999L18.5802 24.174L20.1486 29.1324C20.2168 29.4675 20.626 29.5345 20.8987 29.3335L23.149 27.5243C23.3536 27.3233 23.6946 27.3233 23.9674 27.5243L27.9907 30.4056C28.2634 30.6066 28.6726 30.4726 28.7408 30.1375L31.7412 16.0663C31.8094 15.7313 31.4685 15.3962 31.1275 15.5303L14.5569 21.8288C14.1477 21.9628 14.1477 22.5659 14.5569 22.6999ZM19.944 23.4369L27.8543 18.6795C27.9907 18.6125 28.1271 18.8135 27.9907 18.8805L21.5124 24.8441C21.3079 25.0451 21.1033 25.3131 21.1033 25.6481L20.8987 27.2563C20.8987 27.4573 20.5578 27.5243 20.4896 27.2563L19.6713 24.308C19.4667 23.973 19.6031 23.571 19.944 23.4369Z" fill="#7E7F85"/>
</svg>
