<svg width="46" height="46" viewBox="0 0 46 46" fill="none" xmlns="http://www.w3.org/2000/svg">
<rect width="46" height="46" rx="9" fill="#E6E7EB"/>
<path fill-rule="evenodd" clip-rule="evenodd" d="M33 16.1749C32.263 16.5002 31.4723 16.7211 30.6428 16.8196C31.4902 16.3122 32.1407 15.5064 32.445 14.5484C31.6514 15.02 30.7741 15.3602 29.8402 15.5452C29.0913 14.7484 28.0261 14.25 26.8445 14.25C24.5799 14.25 22.7419 16.0884 22.7419 18.3535C22.7419 18.6758 22.7777 18.9892 22.8493 19.2876C19.4389 19.1175 16.4164 17.4821 14.3934 14.9991C14.0413 15.6049 13.8384 16.3092 13.8384 17.0613C13.8384 18.4848 14.5635 19.7413 15.6645 20.4754C14.9931 20.4545 14.3606 20.2695 13.8056 19.9621C13.8056 19.98 13.8056 19.9949 13.8056 20.0129C13.8056 22.0005 15.2199 23.6598 17.0967 24.0358C16.7535 24.1283 16.3895 24.1791 16.0166 24.1791C15.751 24.1791 15.4944 24.1522 15.2438 24.1045C15.7659 25.7339 17.2817 26.9217 19.0749 26.9545C17.6696 28.0558 15.9032 28.7124 13.9787 28.7124C13.6475 28.7124 13.3222 28.6915 13 28.6556C14.8141 29.8196 16.9714 30.5 19.2897 30.5C26.8356 30.5 30.9621 24.2477 30.9621 18.8251C30.9621 18.646 30.9591 18.4699 30.9502 18.2938C31.7528 17.7149 32.448 16.9927 32.997 16.169L33 16.1749Z" fill="#7E7F85"/>
</svg>
