<svg width="46" height="46" viewBox="0 0 46 46" fill="none" xmlns="http://www.w3.org/2000/svg">
<rect width="46" height="46" rx="9" fill="#E6E7EB"/>
<path d="M23.7815 29.25C17.8025 29.25 14.3921 24.5578 14.25 16.75H17.245C17.3434 22.4807 19.5514 24.9082 21.3003 25.4087V16.75H24.1204V21.6924C25.8474 21.4797 27.6619 19.2275 28.274 16.75H31.0942C30.8635 18.0349 30.4037 19.2515 29.7435 20.3237C29.0834 21.3958 28.2371 22.3006 27.2575 22.9812C28.3509 23.6032 29.3167 24.4835 30.0911 25.5641C30.8655 26.6446 31.4309 27.9009 31.75 29.25H28.6457C28.3592 28.0782 27.777 27.0293 26.972 26.2347C26.167 25.44 25.175 24.9351 24.1204 24.783V29.25H23.7815V29.25Z" fill="#7E7F85"/>
</svg>
